HIERARCHY
ROOT Hips
{
	OFFSET 0.000000 0.000000 0.000000
	CHANNELS 6 Xposition Yposition Zposition Xrotation Yrotation Zrotation
	JOINT LeftUpLeg_virtual
	{
		OFFSET 0.000000 0.000000 0.000000
		CHANNELS 3 Xrotation Yrotation Zrotation
		JOINT LeftUpLeg
		{
			OFFSET 10.205400 -3.823500 0.155100
			CHANNELS 3 Xrotation Yrotation Zrotation
			JOINT LeftLeg
			{
				OFFSET 0.708757 -12.982077 0.567790
				CHANNELS 3 Xrotation Yrotation Zrotation
				JOINT LeftFoot
				{
					OFFSET -0.708756 -10.717838 -2.184338
					CHANNELS 3 Xrotation Yrotation Zrotation
					JOINT LeftToeBase
					{
						OFFSET 0.108149 -7.191104 7.560241
						CHANNELS 3 Xrotation Yrotation Zrotation
						JOINT LeftToe_End
						{
							OFFSET 0.070230 0.081724 4.490308
							CHANNELS 3 Xrotation Yrotation Zrotation
							End Site
							{
								OFFSET 0 0 0
							}
						}
					}
				}
			}
		}
	}
	JOINT RightUpLeg_virtual
	{
		OFFSET 0.000000 0.000000 0.000000
		CHANNELS 3 Xrotation Yrotation Zrotation
		JOINT RightUpLeg
		{
			OFFSET -10.205400 -3.823500 0.005500
			CHANNELS 3 Xrotation Yrotation Zrotation
			JOINT RightLeg
			{
				OFFSET -0.708756 -12.982134 0.610632
				CHANNELS 3 Xrotation Yrotation Zrotation
				JOINT RightFoot
				{
					OFFSET 0.708754 -10.717769 -1.945823
					CHANNELS 3 Xrotation Yrotation Zrotation
					JOINT RightToeBase
					{
						OFFSET -0.108140 -7.191069 7.372968
						CHANNELS 3 Xrotation Yrotation Zrotation
						JOINT RightToe_End
						{
							OFFSET -0.070227 0.081735 4.479403
							CHANNELS 3 Xrotation Yrotation Zrotation
							End Site
							{
								OFFSET 0 0 0
							}
						}
					}
				}
			}
		}
	}
	JOINT Spine_virtual
	{
		OFFSET 0.000000 0.000000 0.000000
		CHANNELS 3 Xrotation Yrotation Zrotation
		JOINT Spine
		{
			OFFSET 0.000000 6.876099 0.125700
			CHANNELS 3 Xrotation Yrotation Zrotation
			JOINT Spine1
			{
				OFFSET 0.000000 5.730043 0.104720
				CHANNELS 3 Xrotation Yrotation Zrotation
				JOINT Spine1_split
				{
					OFFSET 0.000000 5.730043 0.104720
					CHANNELS 3 Xrotation Yrotation Zrotation
					JOINT Spine2
					{
						OFFSET 0.000000 5.730043 0.104720
						CHANNELS 3 Xrotation Yrotation Zrotation
						JOINT Neck_virtual
						{
							OFFSET 0.000000 0.000000 0.000000
							CHANNELS 3 Xrotation Yrotation Zrotation
							JOINT Neck
							{
								OFFSET 0.000000 10.314075 0.188496
								CHANNELS 3 Xrotation Yrotation Zrotation
								JOINT Head
								{
									OFFSET 0.000000 7.643700 -2.377400
									CHANNELS 3 Xrotation Yrotation Zrotation
									JOINT HeadTop_End
									{
										OFFSET 0.000000 43.788605 -13.619600
										CHANNELS 3 Xrotation Yrotation Zrotation
										End Site
										{
											OFFSET 0 0 0
										}
									}
								}
							}
						}
						JOINT LeftShoulder_virtual
						{
							OFFSET 0.000000 0.000000 0.000000
							CHANNELS 3 Xrotation Yrotation Zrotation
							JOINT LeftShoulder
							{
								OFFSET 2.196100 4.412489 0.087492
								CHANNELS 3 Xrotation Yrotation Zrotation
								JOINT LeftShoulder_split
								{
									OFFSET 2.196100 4.412489 0.087492
									CHANNELS 3 Xrotation Yrotation Zrotation
									JOINT LeftArm
									{
										OFFSET 8.771219 -2.981674 -0.026999
										CHANNELS 3 Xrotation Yrotation Zrotation
										JOINT LeftForeArm
										{
											OFFSET 8.512804 0.000000 -0.000000
											CHANNELS 3 Xrotation Yrotation Zrotation
											JOINT LeftHand
											{
												OFFSET 18.484802 0.000000 -0.000000
												CHANNELS 3 Xrotation Yrotation Zrotation
												End Site
												{
													OFFSET 0 0 0
												}
											}
										}
									}
								}
							}
						}
						JOINT RightShoulder_virtual
						{
							OFFSET 0.000000 0.000000 0.000000
							CHANNELS 3 Xrotation Yrotation Zrotation
							JOINT RightShoulder
							{
								OFFSET -2.196100 4.412496 0.070690
								CHANNELS 3 Xrotation Yrotation Zrotation
								JOINT RightShoulder_split
								{
									OFFSET -2.196100 4.412496 0.070690
									CHANNELS 3 Xrotation Yrotation Zrotation
									JOINT RightArm
									{
										OFFSET -8.771282 -2.981682 -0.094208
										CHANNELS 3 Xrotation Yrotation Zrotation
										JOINT RightForeArm
										{
											OFFSET -8.494598 0.000000 0.000000
											CHANNELS 3 Xrotation Yrotation Zrotation
											JOINT RightHand
											{
												OFFSET -18.483803 0.000000 0.000001
												CHANNELS 3 Xrotation Yrotation Zrotation
												End Site
												{
													OFFSET 0 0 0
												}
											}
										}
									}
								}
							}
						}
					}
				}
			}
		}
	}
}
MOTION
Frames: 4
Frame Time: 0.03333333
-0.510873 33.740395 -4.184757 0.000000 0.000000 0.000000 1.498979 -24.458479 0.524470 -17.697826 32.162343 18.676645 24.464833 4.337076 -0.225224 -11.936295 8.308834 -20.639423 3.291786 -3.642087 -0.095215 0.000000 0.000000 0.000000 2.576232 -22.374469 0.631002 -4.972487 2.725120 -7.145843 10.034921 12.248647 2.041887 -15.085701 -8.535941 20.091309 3.148021 4.006956 -13.645259 0.000000 0.000000 0.000000 -0.018803 -17.616721 -0.283519 3.207685 -0.970132 -1.053556 2.758449 -3.119205 2.280890 0.062796 -0.304368 0.112732 0.000000 0.000000 0.000000 5.272417 0.044988 3.332042 -10.243063 26.381657 -2.963276 -20.304283 22.283837 -6.221887 0.000000 0.000000 0.000000 3.776631 -1.526973 2.648421 2.110375 -6.943256 -1.351134 7.458196 -1.770130 1.433967 -67.891486 -2.078925 -39.489702 7.019382 -58.668525 10.305209 0.000000 0.000000 0.000000 4.203367 -1.723830 2.986099 -2.684010 0.605848 2.721710 -2.169252 -5.586183 0.853945 -8.525224 -2.671772 69.912163 10.131360 16.231490 -1.529523 0.000000 0.000000 0.000000 
-0.464630 33.718887 -4.175346 0.000000 0.000000 0.000000 1.449636 -24.755906 0.639576 -17.863818 32.403729 18.545589 24.470015 4.701111 -0.120838 -12.081189 8.182965 -20.357888 3.685606 -3.659778 -0.062715 0.000000 0.000000 0.000000 2.713829 -22.667453 0.770329 -5.235624 2.483898 -7.179291 10.406330 12.101091 2.103685 -15.040676 -8.284602 20.171014 2.673290 4.047859 -13.346202 0.000000 0.000000 0.000000 -0.042687 -17.953041 -0.223014 3.175620 -0.942781 -1.148902 2.610747 -3.074223 2.256373 0.065195 -0.241708 0.077344 0.000000 0.000000 0.000000 5.341273 0.111076 3.282902 -9.911706 26.448355 -3.046584 -20.739624 22.234270 -6.213857 0.000000 0.000000 0.000000 3.774200 -1.474866 2.667758 2.055020 -6.438496 -1.404327 7.017797 -1.888334 1.405877 -67.925186 -1.245332 -38.715916 6.672115 -58.168022 9.920471 0.000000 0.000000 0.000000 4.095024 -1.724187 2.954583 -2.727498 0.675402 2.904444 -1.745594 -5.508718 0.713902 -8.375235 -2.581047 69.524455 10.318306 16.344153 -1.552865 0.000000 0.000000 0.000000 
-0.350261 33.678482 -4.138603 0.000000 0.000000 0.000000 1.526829 -24.708716 0.760573 -18.206861 32.464620 18.395439 24.596555 5.175800 -0.154430 -12.243159 7.792334 -19.566455 4.536248 -3.647890 -0.154709 0.000000 0.000000 0.000000 2.817502 -22.802271 0.917737 -5.275803 2.149429 -7.344219 11.170099 11.721144 2.183112 -15.558302 -8.022717 20.041950 2.562988 4.166773 -12.710381 0.000000 0.000000 0.000000 0.040371 -18.047621 -0.161600 3.027308 -0.881068 -1.284755 2.453449 -2.859977 2.206107 0.065744 -0.218948 0.038631 0.000000 0.000000 0.000000 5.389626 0.340106 3.187151 -9.289719 26.399731 -3.236884 -21.528114 21.850299 -6.279493 0.000000 0.000000 0.000000 3.758125 -1.258641 2.623850 2.020868 -5.776507 -1.353530 6.686324 -2.323065 1.423215 -67.916915 0.335806 -37.434057 7.150969 -57.935597 10.190779 0.000000 0.000000 0.000000 4.030722 -1.564235 2.860793 -2.742934 0.939672 3.355276 -1.432884 -5.333570 0.548423 -7.927646 -2.429019 68.790448 10.609203 16.851853 -1.505717 0.000000 0.000000 0.000000 
-0.175380 33.622471 -4.091230 0.000000 0.000000 0.000000 1.736054 -24.267251 0.897174 -18.679355 32.338080 18.260063 24.839842 5.697803 -0.343701 -12.308403 7.111065 -18.410806 5.359827 -3.608354 -0.265751 0.000000 0.000000 0.000000 2.907860 -22.820533 1.056160 -5.140557 1.794825 -7.696325 11.866217 11.214857 2.264755 -16.616923 -7.755908 19.974787 3.091053 4.373051 -12.113512 0.000000 0.000000 0.000000 0.246575 -17.832767 -0.072664 2.773474 -0.800489 -1.411538 2.314038 -2.485866 2.129292 0.056545 -0.236957 0.029787 0.000000 0.000000 0.000000 5.408442 0.712126 3.061150 -8.468909 26.213434 -3.500339 -22.620533 21.007722 -6.453511 0.000000 0.000000 0.000000 3.757387 -0.880354 2.516864 2.011302 -4.932509 -1.205210 6.550917 -2.979612 1.509259 -67.808103 2.519158 -35.801085 8.355589 -57.961149 10.996377 0.000000 0.000000 0.000000 4.038525 -1.241226 2.712784 -2.714219 1.354105 4.016032 -1.260358 -5.125464 0.444854 -7.162284 -2.368096 67.802263 10.937502 17.620165 -1.367620 0.000000 0.000000 0.000000 
